<?xml version="1.0" encoding="UTF-8"?>
<svg xmlns="http://www.w3.org/2000/svg" width="1600" height="1000" viewBox="0 0 1600 1000" role="img" aria-label="印花图片设置 PRD 截图">
  <defs>
    <linearGradient id="canvas-bg" x1="0" y1="0" x2="1" y2="1">
      <stop offset="0%" stop-color="#f9fcff" />
      <stop offset="52%" stop-color="#edf4fb" />
      <stop offset="100%" stop-color="#e4edf6" />
    </linearGradient>
    <linearGradient id="window-head" x1="0" y1="0" x2="1" y2="1">
      <stop offset="0%" stop-color="#083344" />
      <stop offset="52%" stop-color="#0f766e" />
      <stop offset="100%" stop-color="#109c93" />
    </linearGradient>
    <linearGradient id="card-glow" x1="0" y1="0" x2="1" y2="1">
      <stop offset="0%" stop-color="#f6fffd" />
      <stop offset="100%" stop-color="#ffffff" />
    </linearGradient>
    <linearGradient id="thumb-warm" x1="0" y1="0" x2="1" y2="1">
      <stop offset="0%" stop-color="#f8ead9" />
      <stop offset="100%" stop-color="#e6c7a2" />
    </linearGradient>
    <linearGradient id="thumb-gold" x1="0" y1="0" x2="1" y2="1">
      <stop offset="0%" stop-color="#f9efcf" />
      <stop offset="100%" stop-color="#f1c77a" />
    </linearGradient>
    <linearGradient id="thumb-pink" x1="0" y1="0" x2="1" y2="1">
      <stop offset="0%" stop-color="#f9e5e2" />
      <stop offset="100%" stop-color="#e9b3af" />
    </linearGradient>
    <linearGradient id="thumb-cool" x1="0" y1="0" x2="1" y2="1">
      <stop offset="0%" stop-color="#dce8f6" />
      <stop offset="100%" stop-color="#a5c0dd" />
    </linearGradient>
    <filter id="shadow" x="-20%" y="-20%" width="140%" height="140%">
      <feDropShadow dx="0" dy="16" stdDeviation="22" flood-color="#0f172a" flood-opacity="0.16" />
    </filter>
    <filter id="softShadow" x="-20%" y="-20%" width="140%" height="140%">
      <feDropShadow dx="0" dy="10" stdDeviation="16" flood-color="#0f172a" flood-opacity="0.08" />
    </filter>
  </defs>
  <rect x="0" y="0" width="1600" height="1000" rx="0" fill="url(#canvas-bg)" stroke="none" stroke-width="1" />
  <rect x="70" y="48" width="1460" height="904" rx="32" fill="#ffffff" stroke="#d7e2ee" stroke-width="1" filter="url(#shadow)" />
<rect x="70" y="48" width="1460" height="120" rx="32" fill="url(#window-head)" stroke="none" stroke-width="1" />
<text x="118" y="102" font-size="34" font-weight="800" fill="#ffffff" font-family="'PingFang SC','Microsoft YaHei','Noto Sans SC',sans-serif" text-anchor="start">商品管理</text>
<text x="118" y="136" font-size="16" font-weight="500" fill="#d8f3ef" font-family="'PingFang SC','Microsoft YaHei','Noto Sans SC',sans-serif" text-anchor="start">菜单、印花图片和基础设置统一在这里维护</text>
<rect x="1222" y="90" width="250" height="36" rx="18.0" fill="#e6f4f1" stroke="#bce3dd" stroke-width="1" />
<text x="1347.0" y="113.0" font-size="14" font-weight="700" fill="#0f766e" font-family="'PingFang SC','Microsoft YaHei','Noto Sans SC',sans-serif" text-anchor="middle">当前设备：上海市中心店 · RCK386</text>
<rect x="98" y="154" width="1404" height="70" rx="22" fill="#f8fbfd" stroke="#e3edf5" stroke-width="1" />
<rect x="356" y="168" width="148" height="42" rx="14" fill="#ffffff" stroke="#d7e2ee" stroke-width="1" />
<text x="430.0" y="195" font-size="15" font-weight="700" fill="#475467" font-family="'PingFang SC','Microsoft YaHei','Noto Sans SC',sans-serif" text-anchor="middle">菜单管理</text>
<rect x="518" y="168" width="170" height="42" rx="14" fill="#109c93" stroke="#109c93" stroke-width="1" />
<text x="603.0" y="195" font-size="15" font-weight="700" fill="#ffffff" font-family="'PingFang SC','Microsoft YaHei','Noto Sans SC',sans-serif" text-anchor="middle">印花图片设置</text>
<rect x="704" y="168" width="136" height="42" rx="14" fill="#ffffff" stroke="#d7e2ee" stroke-width="1" />
<text x="772.0" y="195" font-size="15" font-weight="700" fill="#475467" font-family="'PingFang SC','Microsoft YaHei','Noto Sans SC',sans-serif" text-anchor="middle">基本设置</text>
<rect x="854" y="168" width="136" height="42" rx="14" fill="#ffffff" stroke="#d7e2ee" stroke-width="1" />
<text x="922.0" y="195" font-size="15" font-weight="700" fill="#475467" font-family="'PingFang SC','Microsoft YaHei','Noto Sans SC',sans-serif" text-anchor="middle">批量改价</text>
<text x="110" y="268" font-size="30" font-weight="800" fill="#162033" font-family="'PingFang SC','Microsoft YaHei','Noto Sans SC',sans-serif" text-anchor="start">印花图片设置</text>
<text x="110" y="298" font-size="16" font-weight="500" fill="#667085" font-family="'PingFang SC','Microsoft YaHei','Noto Sans SC',sans-serif" text-anchor="start">当前设备生效，上传后可直接复制到其他设备。</text>
<rect x="1260" y="260" width="212" height="34" rx="17.0" fill="#eef7f6" stroke="#cde8e4" stroke-width="1" />
<text x="1366.0" y="282.0" font-size="14" font-weight="700" fill="#0f766e" font-family="'PingFang SC','Microsoft YaHei','Noto Sans SC',sans-serif" text-anchor="middle">当前设备生效 · RCK386</text>
<rect x="110" y="272" width="220" height="72" rx="16" fill="#f8fbfd" stroke="#d7e2ee" stroke-width="1" />
<text x="128" y="296" font-size="13" font-weight="600" fill="#667085" font-family="'PingFang SC','Microsoft YaHei','Noto Sans SC',sans-serif" text-anchor="start">总计印花数</text>
<text x="128" y="326" font-size="26" font-weight="800" fill="#162033" font-family="'PingFang SC','Microsoft YaHei','Noto Sans SC',sans-serif" text-anchor="start">4</text>
<rect x="110" y="304" width="584" height="54" rx="16" fill="#ffffff" stroke="#d7e2ee" stroke-width="1" />
<text x="140" y="338" font-size="18" font-weight="700" fill="#667085" font-family="'PingFang SC','Microsoft YaHei','Noto Sans SC',sans-serif" text-anchor="start">⌕</text>
<text x="174" y="338" font-size="15" font-weight="500" fill="#98a2b3" font-family="'PingFang SC','Microsoft YaHei','Noto Sans SC',sans-serif" text-anchor="start">搜索印花名称</text>
<rect x="1190" y="304" width="182" height="54" rx="14" fill="#109c93" stroke="none" stroke-width="1" opacity="1" />
<text x="1281.0" y="337.0" font-size="16" font-weight="700" fill="#ffffff" font-family="'PingFang SC','Microsoft YaHei','Noto Sans SC',sans-serif" text-anchor="middle" opacity="1">上传印花图片</text>
<rect x="110" y="390" width="620" height="182" rx="26" fill="url(#card-glow)" stroke="#b7ece7" stroke-width="1" filter="url(#softShadow)" />
<rect x="130" y="410" width="126" height="142" rx="22" fill="url(#thumb-warm)" stroke="#eadfcb" stroke-width="1" />
<rect x="144" y="424" width="98" height="114" rx="20" fill="#f7efe4" stroke="#ecd9bf" stroke-width="1" />
<ellipse cx="193.0" cy="489.0" rx="39.06" ry="39.760000000000005" fill="#efe2cf" />
<path d="M 165.0 503.0 C 189.0 487.0, 199.0 461.0, 187.0 451.0" fill="none" stroke="#8b5e3c" stroke-width="5" stroke-linecap="round"/>
<path d="M 183.0 481.0 C 213.0 479.0, 217.0 505.0, 195.0 511.0" fill="none" stroke="#fffaf4" stroke-width="16" stroke-linecap="round"/>
<circle cx="211.0" cy="461.0" r="5" fill="#fffaf4" />
<text x="278" y="448" font-size="22" font-weight="800" fill="#162033" font-family="'PingFang SC','Microsoft YaHei','Noto Sans SC',sans-serif" text-anchor="start">天鹅</text>
<text x="278" y="478" font-size="14" font-weight="500" fill="#667085" font-family="'PingFang SC','Microsoft YaHei','Noto Sans SC',sans-serif" text-anchor="start">当前设备生效，更新于 2026-03-31 18:20</text>
<text x="278" y="504" font-size="14" font-weight="500" fill="#98a2b3" font-family="'PingFang SC','Microsoft YaHei','Noto Sans SC',sans-serif" text-anchor="start">图片、名称和更新时间保持轻量展示。</text>
<rect x="274" y="522" width="132" height="34" rx="14" fill="#ffffff" stroke="#d7e2ee" stroke-width="1" opacity="1" />
<text x="340.0" y="545.0" font-size="13" font-weight="700" fill="#344054" font-family="'PingFang SC','Microsoft YaHei','Noto Sans SC',sans-serif" text-anchor="middle" opacity="1">复制到其他设备</text>
<rect x="416" y="522" width="74" height="34" rx="14" fill="#ffffff" stroke="#d7e2ee" stroke-width="1" opacity="1" />
<text x="453.0" y="545.0" font-size="13" font-weight="700" fill="#344054" font-family="'PingFang SC','Microsoft YaHei','Noto Sans SC',sans-serif" text-anchor="middle" opacity="1">删除</text>
<rect x="760" y="390" width="620" height="182" rx="26" fill="#ffffff" stroke="#d7e2ee" stroke-width="1" filter="url(#softShadow)" />
<rect x="780" y="410" width="126" height="142" rx="22" fill="url(#thumb-gold)" stroke="#eadfcb" stroke-width="1" />
<rect x="794" y="424" width="98" height="114" rx="20" fill="#f7efe4" stroke="#ecd9bf" stroke-width="1" />
<ellipse cx="843.0" cy="489.0" rx="39.06" ry="39.760000000000005" fill="#efe2cf" />
<ellipse cx="823.0" cy="497.0" rx="20" ry="28" fill="#fffaf4" />
<ellipse cx="843.0" cy="487.0" rx="22" ry="30" fill="#fffaf4" />
<ellipse cx="863.0" cy="497.0" rx="20" ry="28" fill="#fffaf4" />
<path d="M 843.0 531.0 L 843.0 453.0" stroke="#8b5e3c" stroke-width="5" stroke-linecap="round" />
<text x="928" y="448" font-size="22" font-weight="800" fill="#162033" font-family="'PingFang SC','Microsoft YaHei','Noto Sans SC',sans-serif" text-anchor="start">郁金香</text>
<text x="928" y="478" font-size="14" font-weight="500" fill="#667085" font-family="'PingFang SC','Microsoft YaHei','Noto Sans SC',sans-serif" text-anchor="start">当前设备生效，更新于 2026-03-31 16:42</text>
<text x="928" y="504" font-size="14" font-weight="500" fill="#98a2b3" font-family="'PingFang SC','Microsoft YaHei','Noto Sans SC',sans-serif" text-anchor="start">图片、名称和更新时间保持轻量展示。</text>
<rect x="924" y="522" width="132" height="34" rx="14" fill="#ffffff" stroke="#d7e2ee" stroke-width="1" opacity="1" />
<text x="990.0" y="545.0" font-size="13" font-weight="700" fill="#344054" font-family="'PingFang SC','Microsoft YaHei','Noto Sans SC',sans-serif" text-anchor="middle" opacity="1">复制到其他设备</text>
<rect x="1066" y="522" width="74" height="34" rx="14" fill="#ffffff" stroke="#d7e2ee" stroke-width="1" opacity="1" />
<text x="1103.0" y="545.0" font-size="13" font-weight="700" fill="#344054" font-family="'PingFang SC','Microsoft YaHei','Noto Sans SC',sans-serif" text-anchor="middle" opacity="1">删除</text>
<rect x="110" y="602" width="620" height="182" rx="26" fill="#ffffff" stroke="#d7e2ee" stroke-width="1" filter="url(#softShadow)" />
<rect x="130" y="622" width="126" height="142" rx="22" fill="url(#thumb-pink)" stroke="#eadfcb" stroke-width="1" />
<rect x="144" y="636" width="98" height="114" rx="20" fill="#f7efe4" stroke="#ecd9bf" stroke-width="1" />
<ellipse cx="193.0" cy="701.0" rx="39.06" ry="39.760000000000005" fill="#efe2cf" />
<path d="M 193.0 735.0 C 159.0 711.0, 159.0 711.0, 679.0 735.0 C 159.0 657.0, 185.0 655.0, 193.0 681.0 C 201.0 655.0, 655.0 657.0, 227.0 735.0 C 657.0 711.0, 227.0 711.0, 679.0 735.0 Z" fill="#fffaf4" />
<text x="278" y="660" font-size="22" font-weight="800" fill="#162033" font-family="'PingFang SC','Microsoft YaHei','Noto Sans SC',sans-serif" text-anchor="start">爱心</text>
<text x="278" y="690" font-size="14" font-weight="500" fill="#667085" font-family="'PingFang SC','Microsoft YaHei','Noto Sans SC',sans-serif" text-anchor="start">当前设备生效，更新于 2026-03-30 21:10</text>
<text x="278" y="716" font-size="14" font-weight="500" fill="#98a2b3" font-family="'PingFang SC','Microsoft YaHei','Noto Sans SC',sans-serif" text-anchor="start">图片、名称和更新时间保持轻量展示。</text>
<rect x="274" y="734" width="132" height="34" rx="14" fill="#ffffff" stroke="#d7e2ee" stroke-width="1" opacity="1" />
<text x="340.0" y="757.0" font-size="13" font-weight="700" fill="#344054" font-family="'PingFang SC','Microsoft YaHei','Noto Sans SC',sans-serif" text-anchor="middle" opacity="1">复制到其他设备</text>
<rect x="416" y="734" width="74" height="34" rx="14" fill="#ffffff" stroke="#d7e2ee" stroke-width="1" opacity="1" />
<text x="453.0" y="757.0" font-size="13" font-weight="700" fill="#344054" font-family="'PingFang SC','Microsoft YaHei','Noto Sans SC',sans-serif" text-anchor="middle" opacity="1">删除</text>
<rect x="760" y="602" width="620" height="182" rx="26" fill="#ffffff" stroke="#d7e2ee" stroke-width="1" filter="url(#softShadow)" />
<rect x="780" y="622" width="126" height="142" rx="22" fill="url(#thumb-cool)" stroke="#eadfcb" stroke-width="1" />
<rect x="794" y="636" width="98" height="114" rx="20" fill="#f7efe4" stroke="#ecd9bf" stroke-width="1" />
<ellipse cx="843.0" cy="701.0" rx="39.06" ry="39.760000000000005" fill="#efe2cf" />
<circle cx="843.0" cy="701.0" r="42" fill="#fffaf4" />
<circle cx="817.0" cy="675.0" r="16" fill="#2f2f33" />
<circle cx="869.0" cy="675.0" r="16" fill="#2f2f33" />
<ellipse cx="825.0" cy="703.0" rx="14" ry="18" fill="#2f2f33" />
<ellipse cx="861.0" cy="703.0" rx="14" ry="18" fill="#2f2f33" />
<circle cx="843.0" cy="721.0" r="8" fill="#2f2f33" />
<text x="928" y="660" font-size="22" font-weight="800" fill="#162033" font-family="'PingFang SC','Microsoft YaHei','Noto Sans SC',sans-serif" text-anchor="start">熊猫</text>
<text x="928" y="690" font-size="14" font-weight="500" fill="#667085" font-family="'PingFang SC','Microsoft YaHei','Noto Sans SC',sans-serif" text-anchor="start">当前设备生效，更新于 2026-03-29 19:26</text>
<text x="928" y="716" font-size="14" font-weight="500" fill="#98a2b3" font-family="'PingFang SC','Microsoft YaHei','Noto Sans SC',sans-serif" text-anchor="start">图片、名称和更新时间保持轻量展示。</text>
<rect x="924" y="734" width="132" height="34" rx="14" fill="#ffffff" stroke="#d7e2ee" stroke-width="1" opacity="1" />
<text x="990.0" y="757.0" font-size="13" font-weight="700" fill="#344054" font-family="'PingFang SC','Microsoft YaHei','Noto Sans SC',sans-serif" text-anchor="middle" opacity="1">复制到其他设备</text>
<rect x="1066" y="734" width="74" height="34" rx="14" fill="#ffffff" stroke="#d7e2ee" stroke-width="1" opacity="1" />
<text x="1103.0" y="757.0" font-size="13" font-weight="700" fill="#344054" font-family="'PingFang SC','Microsoft YaHei','Noto Sans SC',sans-serif" text-anchor="middle" opacity="1">删除</text>

</svg>
