<svg xmlns="http://www.w3.org/2000/svg" width="3040" height="1400" viewBox="0 0 3040 1400"><rect x="0" y="0" width="3040" height="1400" fill="#EEF2F6"/><rect x="40" y="40" width="1440" height="1280" rx="24" ry="24" fill="#EEF2F6" stroke="#DCE3EA" stroke-width="1" opacity="1"/><rect x="40" y="40" width="248" height="1280" rx="24" ry="24" fill="#0F172A" stroke="none" stroke-width="0" opacity="1"/><text x="68" y="92" fill="#F8FAFC" opacity="1" font-family="PingFang SC" font-size="22" font-weight="700"><tspan x="68" dy="0">运营控制台</tspan></text><text x="68" y="116" fill="#94A3B8" opacity="1" font-family="Inter" font-size="12" font-weight="500"><tspan x="68" dy="0">COFE+ Fleet Command</tspan></text><rect x="56" y="236" width="216" height="52" rx="14" ry="14" fill="#D9FBF3" stroke="none" stroke-width="0" opacity="1"/><text x="68" y="202" fill="#64748B" opacity="1" font-family="PingFang SC" font-size="12" font-weight="600"><tspan x="68" dy="0">运营管理</tspan></text><text x="72" y="223" fill="#CBD5E1" opacity="1" font-family="PingFang SC" font-size="15" font-weight="500"><tspan x="72" dy="0">总览</tspan></text><text x="72" y="266" fill="#0F766E" opacity="1" font-family="PingFang SC" font-size="15" font-weight="700"><tspan x="72" dy="0">设备管理</tspan></text><text x="72" y="310" fill="#CBD5E1" opacity="1" font-family="PingFang SC" font-size="15" font-weight="500"><tspan x="72" dy="0">物料管理</tspan></text><text x="72" y="354" fill="#CBD5E1" opacity="1" font-family="PingFang SC" font-size="15" font-weight="500"><tspan x="72" dy="0">订单管理</tspan></text><text x="72" y="398" fill="#CBD5E1" opacity="1" font-family="PingFang SC" font-size="15" font-weight="500"><tspan x="72" dy="0">故障列表</tspan></text><rect x="288" y="40" width="1192" height="104" rx="0" ry="0" fill="#FFFFFF" stroke="#E5E7EB" stroke-width="1" opacity="1"/><text x="320" y="92" fill="#111827" opacity="1" font-family="PingFang SC" font-size="24" font-weight="700"><tspan x="320" dy="0">设备管理主控台</tspan></text><text x="320" y="115" fill="#667085" opacity="1" font-family="PingFang SC" font-size="13" font-weight="400"><tspan x="320" dy="0">把设备健康、补料压力和远程处理入口放到同一操作台。</tspan></text><rect x="1232" y="68" width="120" height="44" rx="14" ry="14" fill="#111827" stroke="none" stroke-width="0" opacity="1"/><text x="1263" y="94" fill="#FFFFFF" opacity="1" font-family="PingFang SC" font-size="14" font-weight="600"><tspan x="1263" dy="0">新增设备</tspan></text><rect x="1364" y="68" width="88" height="44" rx="14" ry="14" fill="#F8FAFC" stroke="#E5E7EB" stroke-width="1" opacity="1"/><text x="1390" y="94" fill="#111827" opacity="1" font-family="PingFang SC" font-size="14" font-weight="600"><tspan x="1390" dy="0">导出</tspan></text><rect x="320" y="172" width="1128" height="156" rx="22" ry="22" fill="#111827" stroke="none" stroke-width="0" opacity="1"/><text x="348" y="222" fill="#FFFFFF" opacity="1" font-family="PingFang SC" font-size="22" font-weight="700"><tspan x="348" dy="0">今日设备压力集中在补料与离线恢复</tspan></text><text x="348" y="251" fill="#CBD5E1" opacity="1" font-family="PingFang SC" font-size="13" font-weight="400"><tspan x="348" dy="0">建议先处理 2 台离线设备，再安排 4 台高流量点位补料。</tspan></text><text x="1052" y="236" fill="#FFFFFF" opacity="1" font-family="Inter" font-size="34" font-weight="700"><tspan x="1052" dy="0">91%</tspan></text><text x="1052" y="268" fill="#94A3B8" opacity="1" font-family="PingFang SC" font-size="12" font-weight="500"><tspan x="1052" dy="0">设备在线率</tspan></text><text x="1180" y="236" fill="#FBBF24" opacity="1" font-family="Inter" font-size="34" font-weight="700"><tspan x="1180" dy="0">04</tspan></text><text x="1180" y="268" fill="#94A3B8" opacity="1" font-family="PingFang SC" font-size="12" font-weight="500"><tspan x="1180" dy="0">高优先补料</tspan></text><text x="1306" y="236" fill="#F87171" opacity="1" font-family="Inter" font-size="34" font-weight="700"><tspan x="1306" dy="0">02</tspan></text><text x="1306" y="268" fill="#94A3B8" opacity="1" font-family="PingFang SC" font-size="12" font-weight="500"><tspan x="1306" dy="0">需要远程恢复</tspan></text><rect x="320" y="352" width="252" height="908" rx="20" ry="20" fill="#FFFFFF" stroke="#E5E7EB" stroke-width="1" opacity="1"/><text x="340" y="389" fill="#111827" opacity="1" font-family="PingFang SC" font-size="17" font-weight="700"><tspan x="340" dy="0">筛选与编组</tspan></text><text x="340" y="434" fill="#667085" opacity="1" font-family="PingFang SC" font-size="12" font-weight="600"><tspan x="340" dy="0">设备搜索</tspan></text><rect x="340" y="446" width="212" height="44" rx="14" ry="14" fill="#F8FAFC" stroke="#E5E7EB" stroke-width="1" opacity="1"/><text x="356" y="471" fill="#94A3B8" opacity="1" font-family="PingFang SC" font-size="13" font-weight="400"><tspan x="356" dy="0">搜索设备编号、点位、商户</tspan></text><text x="340" y="530" fill="#667085" opacity="1" font-family="PingFang SC" font-size="12" font-weight="600"><tspan x="340" dy="0">运行状态</tspan></text><rect x="340" y="542" width="64" height="34" rx="999" ry="999" fill="#111827" stroke="none" stroke-width="0" opacity="1"/><text x="360" y="562" fill="#FFFFFF" opacity="1" font-family="PingFang SC" font-size="12" font-weight="600"><tspan x="360" dy="0">全部</tspan></text><rect x="412" y="542" width="64" height="34" rx="999" ry="999" fill="#E7FAF7" stroke="none" stroke-width="0" opacity="1"/><text x="432" y="562" fill="#0F766E" opacity="1" font-family="PingFang SC" font-size="12" font-weight="600"><tspan x="432" dy="0">在线</tspan></text><rect x="484" y="542" width="64" height="34" rx="999" ry="999" fill="#FEE2E2" stroke="none" stroke-width="0" opacity="1"/><text x="504" y="562" fill="#B42318" opacity="1" font-family="PingFang SC" font-size="12" font-weight="600"><tspan x="504" dy="0">异常</tspan></text><text x="340" y="616" fill="#667085" opacity="1" font-family="PingFang SC" font-size="12" font-weight="600"><tspan x="340" dy="0">点位区域</tspan></text><rect x="340" y="628" width="212" height="44" rx="14" ry="14" fill="#FFFFFF" stroke="#E5E7EB" stroke-width="1" opacity="1"/><text x="356" y="653" fill="#111827" opacity="1" font-family="PingFang SC" font-size="13" font-weight="500"><tspan x="356" dy="0">华东大区</tspan></text><text x="340" y="714" fill="#667085" opacity="1" font-family="PingFang SC" font-size="12" font-weight="600"><tspan x="340" dy="0">告警优先级</tspan></text><text x="340" y="741" fill="#111827" opacity="1" font-family="PingFang SC" font-size="13" font-weight="500"><tspan x="340" dy="0">P1 紧急  2 台</tspan><tspan x="340" dy="18">P2 当日  4 台</tspan><tspan x="340" dy="18">P3 观察  7 台</tspan></text><rect x="340" y="816" width="212" height="154" rx="16" ry="16" fill="#F8FAFC" stroke="none" stroke-width="0" opacity="1"/><text x="356" y="852" fill="#111827" opacity="1" font-family="PingFang SC" font-size="14" font-weight="700"><tspan x="356" dy="0">批量动作建议</tspan></text><text x="356" y="878" fill="#667085" opacity="1" font-family="PingFang SC" font-size="12" font-weight="400"><tspan x="356" dy="0">已自动聚合 4 台需要补豆的高流量设备，可直接派发给补料班组。</tspan></text><rect x="356" y="930" width="136" height="36" rx="12" ry="12" fill="#111827" stroke="none" stroke-width="0" opacity="1"/><text x="382" y="951" fill="#FFFFFF" opacity="1" font-family="PingFang SC" font-size="12" font-weight="600"><tspan x="382" dy="0">生成补料任务</tspan></text><rect x="596" y="352" width="572" height="908" rx="20" ry="20" fill="#FFFFFF" stroke="#E5E7EB" stroke-width="1" opacity="1"/><text x="620" y="391" fill="#111827" opacity="1" font-family="PingFang SC" font-size="17" font-weight="700"><tspan x="620" dy="0">设备舰队</tspan></text><text x="620" y="419" fill="#667085" opacity="1" font-family="Inter" font-size="13" font-weight="600"><tspan x="620" dy="0">全部 15   离线 2   补料 4   维护中 3</tspan></text><rect x="616" y="446" width="532" height="42" rx="12" ry="12" fill="#F8FAFC" stroke="none" stroke-width="0" opacity="1"/><text x="632" y="470" fill="#667085" opacity="1" font-family="Inter" font-size="12" font-weight="700"><tspan x="632" dy="0">设备 / 点位                状态      原料      心跳</tspan></text><text x="632" y="528" fill="#111827" opacity="1" font-family="PingFang SC" font-size="14" font-weight="600"><tspan x="632" dy="0">RCK111  静安嘉里中心 B1</tspan><tspan x="632" dy="24">在线     豆 86%    2 分钟前</tspan></text><rect x="882" y="522" width="58" height="28" rx="999" ry="999" fill="#E7FAF7" stroke="none" stroke-width="0" opacity="1"/><text x="900" y="539" fill="#0F766E" opacity="1" font-family="PingFang SC" font-size="12" font-weight="700"><tspan x="900" dy="0">在线</tspan></text><text x="632" y="614" fill="#111827" opacity="1" font-family="PingFang SC" font-size="14" font-weight="600"><tspan x="632" dy="0">RCK112  虹桥天地 T2</tspan><tspan x="632" dy="24">离线     奶 12%    18 分钟前</tspan></text><rect x="882" y="608" width="58" height="28" rx="999" ry="999" fill="#FEE2E2" stroke="none" stroke-width="0" opacity="1"/><text x="900" y="625" fill="#B42318" opacity="1" font-family="PingFang SC" font-size="12" font-weight="700"><tspan x="900" dy="0">离线</tspan></text><rect x="616" y="588" width="532" height="76" rx="16" ry="16" fill="#FFF7ED" stroke="#FED7AA" stroke-width="1" opacity="1"/><text x="632" y="702" fill="#111827" opacity="1" font-family="PingFang SC" font-size="14" font-weight="600"><tspan x="632" dy="0">RCK113  前海万象城 L3</tspan><tspan x="632" dy="24">缺豆     豆 34%    5 分钟前</tspan></text><rect x="882" y="696" width="58" height="28" rx="999" ry="999" fill="#FEF3C7" stroke="none" stroke-width="0" opacity="1"/><text x="900" y="713" fill="#B54708" opacity="1" font-family="PingFang SC" font-size="12" font-weight="700"><tspan x="900" dy="0">缺料</tspan></text><text x="632" y="790" fill="#111827" opacity="1" font-family="PingFang SC" font-size="14" font-weight="600"><tspan x="632" dy="0">RCK114  张江 AI 产业园</tspan><tspan x="632" dy="24">维护中   清洗 19:30    1 分钟前</tspan></text><rect x="882" y="784" width="66" height="28" rx="999" ry="999" fill="#DBEAFE" stroke="none" stroke-width="0" opacity="1"/><text x="901" y="801" fill="#1D4ED8" opacity="1" font-family="PingFang SC" font-size="12" font-weight="700"><tspan x="901" dy="0">维护</tspan></text><text x="620" y="1223" fill="#667085" opacity="1" font-family="Inter" font-size="13" font-weight="500"><tspan x="620" dy="0">显示 1-4 / 15 台设备</tspan></text><rect x="1188" y="352" width="260" height="908" rx="20" ry="20" fill="#FFFFFF" stroke="#E5E7EB" stroke-width="1" opacity="1"/><text x="1208" y="389" fill="#111827" opacity="1" font-family="PingFang SC" font-size="17" font-weight="700"><tspan x="1208" dy="0">值班面板</tspan></text><rect x="1208" y="414" width="220" height="132" rx="16" ry="16" fill="#FFF7ED" stroke="none" stroke-width="0" opacity="1"/><text x="1224" y="448" fill="#9A3412" opacity="1" font-family="PingFang SC" font-size="14" font-weight="700"><tspan x="1224" dy="0">优先处理 RCK112</tspan></text><text x="1224" y="476" fill="#7C2D12" opacity="1" font-family="PingFang SC" font-size="12" font-weight="400"><tspan x="1224" dy="0">设备在早餐高峰前离线，建议先发起远程恢复，再决定是否派单。</tspan></text><text x="1208" y="595" fill="#111827" opacity="1" font-family="Inter" font-size="13" font-weight="500"><tspan x="1208" dy="0">09:30  远程重启 RCK112</tspan><tspan x="1208" dy="26">10:00  张江园区清洗巡检</tspan><tspan x="1208" dy="26">10:40  前海万象城补豆</tspan><tspan x="1208" dy="26">11:20  华东周报导出</tspan></text><rect x="1208" y="754" width="220" height="48" rx="14" ry="14" fill="#15B8A6" stroke="none" stroke-width="0" opacity="1"/><text x="1268" y="782" fill="#FFFFFF" opacity="1" font-family="PingFang SC" font-size="14" font-weight="700"><tspan x="1268" dy="0">打开设备详情</tspan></text><rect x="1520" y="40" width="1440" height="1280" rx="24" ry="24" fill="#D8DEE6" stroke="none" stroke-width="0" opacity="1"/><rect x="1520" y="40" width="1440" height="1280" rx="24" ry="24" fill="#0F172A" stroke="none" stroke-width="0" opacity="0.45"/><rect x="1612" y="124" width="1256" height="1012" rx="26" ry="26" fill="#F8FAFC" stroke="none" stroke-width="0" opacity="1"/><rect x="1612" y="124" width="1256" height="84" rx="26" ry="26" fill="#FFFFFF" stroke="#E5E7EB" stroke-width="1" opacity="1"/><text x="1648" y="174" fill="#111827" opacity="1" font-family="PingFang SC" font-size="22" font-weight="700"><tspan x="1648" dy="0">RCK112 设备详情</tspan></text><text x="1648" y="194" fill="#667085" opacity="1" font-family="PingFang SC" font-size="12" font-weight="500"><tspan x="1648" dy="0">虹桥天地 T2 · 当前离线 · 今日高峰前优先恢复</tspan></text><rect x="1648" y="232" width="736" height="162" rx="22" ry="22" fill="#111827" stroke="none" stroke-width="0" opacity="1"/><text x="1676" y="281" fill="#FFFFFF" opacity="1" font-family="PingFang SC" font-size="21" font-weight="700"><tspan x="1676" dy="0">离线已持续 18 分钟，但机构状态仍有恢复窗口</tspan></text><text x="1676" y="315" fill="#CBD5E1" opacity="1" font-family="PingFang SC" font-size="13" font-weight="400"><tspan x="1676" dy="0">建议先远程重启网络模块，再检查奶路与热水系统的恢复状态。</tspan></text><text x="2148" y="280" fill="#FFFFFF" opacity="1" font-family="Inter" font-size="14" font-weight="700"><tspan x="2148" dy="0">心跳 10:12</tspan><tspan x="2148" dy="22">奶量 12%</tspan><tspan x="2148" dy="22">故障 2 项</tspan></text><rect x="1648" y="418" width="736" height="214" rx="20" ry="20" fill="#FFFFFF" stroke="#E5E7EB" stroke-width="1" opacity="1"/><text x="1672" y="455" fill="#111827" opacity="1" font-family="PingFang SC" font-size="17" font-weight="700"><tspan x="1672" dy="0">设备健康矩阵</tspan></text><text x="1672" y="494" fill="#111827" opacity="1" font-family="PingFang SC" font-size="14" font-weight="600"><tspan x="1672" dy="0">网络模块      异常   延迟抖动高</tspan><tspan x="1672" dy="28">奶路系统      预警   余量低于阈值</tspan><tspan x="1672" dy="28">热水系统      正常   温度稳定</tspan><tspan x="1672" dy="28">支付模块      正常   今日交易 82 单</tspan></text><rect x="1648" y="656" width="736" height="292" rx="20" ry="20" fill="#FFFFFF" stroke="#E5E7EB" stroke-width="1" opacity="1"/><text x="1672" y="693" fill="#111827" opacity="1" font-family="PingFang SC" font-size="17" font-weight="700"><tspan x="1672" dy="0">维护时间线</tspan></text><text x="1672" y="732" fill="#111827" opacity="1" font-family="PingFang SC" font-size="14" font-weight="500"><tspan x="1672" dy="0">09:54  自动告警：设备心跳中断</tspan><tspan x="1672" dy="30">10:02  系统识别：高峰点位，自动升为 P1</tspan><tspan x="1672" dy="30">10:08  运维确认：奶量不足，准备远程诊断</tspan><tspan x="1672" dy="30">10:16  建议动作：执行远程重启并锁定补料任务</tspan></text><rect x="2416" y="232" width="396" height="184" rx="20" ry="20" fill="#FFFFFF" stroke="#E5E7EB" stroke-width="1" opacity="1"/><text x="2440" y="269" fill="#111827" opacity="1" font-family="PingFang SC" font-size="17" font-weight="700"><tspan x="2440" dy="0">即时状态</tspan></text><text x="2440" y="308" fill="#111827" opacity="1" font-family="PingFang SC" font-size="14" font-weight="600"><tspan x="2440" dy="0">离线中  ·  补料预警</tspan><tspan x="2440" dy="26">早餐高峰点位  ·  远程恢复可尝试</tspan></text><rect x="2416" y="440" width="396" height="316" rx="20" ry="20" fill="#FFFFFF" stroke="#E5E7EB" stroke-width="1" opacity="1"/><text x="2440" y="477" fill="#111827" opacity="1" font-family="PingFang SC" font-size="17" font-weight="700"><tspan x="2440" dy="0">设备操作</tspan></text><rect x="2440" y="502" width="348" height="48" rx="14" ry="14" fill="#111827" stroke="none" stroke-width="0" opacity="1"/><text x="2578" y="530" fill="#FFFFFF" opacity="1" font-family="PingFang SC" font-size="14" font-weight="700"><tspan x="2578" dy="0">远程操作</tspan></text><rect x="2440" y="562" width="348" height="48" rx="14" ry="14" fill="#F8FAFC" stroke="#E5E7EB" stroke-width="1" opacity="1"/><text x="2578" y="590" fill="#111827" opacity="1" font-family="PingFang SC" font-size="14" font-weight="700"><tspan x="2578" dy="0">编辑状态</tspan></text><rect x="2440" y="622" width="348" height="48" rx="14" ry="14" fill="#F8FAFC" stroke="#E5E7EB" stroke-width="1" opacity="1"/><text x="2578" y="650" fill="#111827" opacity="1" font-family="PingFang SC" font-size="14" font-weight="700"><tspan x="2578" dy="0">状态记录</tspan></text><rect x="2440" y="682" width="348" height="48" rx="14" ry="14" fill="#F8FAFC" stroke="#E5E7EB" stroke-width="1" opacity="1"/><text x="2578" y="710" fill="#111827" opacity="1" font-family="PingFang SC" font-size="14" font-weight="700"><tspan x="2578" dy="0">物料页面</tspan></text><rect x="2416" y="780" width="396" height="168" rx="20" ry="20" fill="#FFFFFF" stroke="#E5E7EB" stroke-width="1" opacity="1"/><text x="2440" y="817" fill="#111827" opacity="1" font-family="PingFang SC" font-size="17" font-weight="700"><tspan x="2440" dy="0">今日任务</tspan></text><text x="2440" y="853" fill="#111827" opacity="1" font-family="PingFang SC" font-size="13" font-weight="500"><tspan x="2440" dy="0">1. 10:30 前确认远程恢复结果</tspan><tspan x="2440" dy="24">2. 11:00 前安排补奶工单</tspan><tspan x="2440" dy="24">3. 午高峰后复盘离线原因</tspan></text></svg>