<svg xmlns="http://www.w3.org/2000/svg" width="1440" height="1280" viewBox="0 0 1440 1280"><rect x="1520" y="40" width="1440" height="1280" rx="24" ry="24" fill="#D8DEE6" stroke="none" stroke-width="0" opacity="1"/><rect x="1520" y="40" width="1440" height="1280" rx="24" ry="24" fill="#0F172A" stroke="none" stroke-width="0" opacity="0.45"/><rect x="1612" y="124" width="1256" height="1012" rx="26" ry="26" fill="#F8FAFC" stroke="none" stroke-width="0" opacity="1"/><rect x="1612" y="124" width="1256" height="84" rx="26" ry="26" fill="#FFFFFF" stroke="#E5E7EB" stroke-width="1" opacity="1"/><text x="1648" y="174" fill="#111827" opacity="1" font-family="PingFang SC" font-size="22" font-weight="700"><tspan x="1648" dy="0">RCK112 设备详情</tspan></text><text x="1648" y="194" fill="#667085" opacity="1" font-family="PingFang SC" font-size="12" font-weight="500"><tspan x="1648" dy="0">虹桥天地 T2 · 当前离线 · 今日高峰前优先恢复</tspan></text><rect x="1648" y="232" width="736" height="162" rx="22" ry="22" fill="#111827" stroke="none" stroke-width="0" opacity="1"/><text x="1676" y="281" fill="#FFFFFF" opacity="1" font-family="PingFang SC" font-size="21" font-weight="700"><tspan x="1676" dy="0">离线已持续 18 分钟，但机构状态仍有恢复窗口</tspan></text><text x="1676" y="315" fill="#CBD5E1" opacity="1" font-family="PingFang SC" font-size="13" font-weight="400"><tspan x="1676" dy="0">建议先远程重启网络模块，再检查奶路与热水系统的恢复状态。</tspan></text><text x="2148" y="280" fill="#FFFFFF" opacity="1" font-family="Inter" font-size="14" font-weight="700"><tspan x="2148" dy="0">心跳 10:12</tspan><tspan x="2148" dy="22">奶量 12%</tspan><tspan x="2148" dy="22">故障 2 项</tspan></text><rect x="1648" y="418" width="736" height="214" rx="20" ry="20" fill="#FFFFFF" stroke="#E5E7EB" stroke-width="1" opacity="1"/><text x="1672" y="455" fill="#111827" opacity="1" font-family="PingFang SC" font-size="17" font-weight="700"><tspan x="1672" dy="0">设备健康矩阵</tspan></text><text x="1672" y="494" fill="#111827" opacity="1" font-family="PingFang SC" font-size="14" font-weight="600"><tspan x="1672" dy="0">网络模块      异常   延迟抖动高</tspan><tspan x="1672" dy="28">奶路系统      预警   余量低于阈值</tspan><tspan x="1672" dy="28">热水系统      正常   温度稳定</tspan><tspan x="1672" dy="28">支付模块      正常   今日交易 82 单</tspan></text><rect x="1648" y="656" width="736" height="292" rx="20" ry="20" fill="#FFFFFF" stroke="#E5E7EB" stroke-width="1" opacity="1"/><text x="1672" y="693" fill="#111827" opacity="1" font-family="PingFang SC" font-size="17" font-weight="700"><tspan x="1672" dy="0">维护时间线</tspan></text><text x="1672" y="732" fill="#111827" opacity="1" font-family="PingFang SC" font-size="14" font-weight="500"><tspan x="1672" dy="0">09:54  自动告警：设备心跳中断</tspan><tspan x="1672" dy="30">10:02  系统识别：高峰点位，自动升为 P1</tspan><tspan x="1672" dy="30">10:08  运维确认：奶量不足，准备远程诊断</tspan><tspan x="1672" dy="30">10:16  建议动作：执行远程重启并锁定补料任务</tspan></text><rect x="2416" y="232" width="396" height="184" rx="20" ry="20" fill="#FFFFFF" stroke="#E5E7EB" stroke-width="1" opacity="1"/><text x="2440" y="269" fill="#111827" opacity="1" font-family="PingFang SC" font-size="17" font-weight="700"><tspan x="2440" dy="0">即时状态</tspan></text><text x="2440" y="308" fill="#111827" opacity="1" font-family="PingFang SC" font-size="14" font-weight="600"><tspan x="2440" dy="0">离线中  ·  补料预警</tspan><tspan x="2440" dy="26">早餐高峰点位  ·  远程恢复可尝试</tspan></text><rect x="2416" y="440" width="396" height="316" rx="20" ry="20" fill="#FFFFFF" stroke="#E5E7EB" stroke-width="1" opacity="1"/><text x="2440" y="477" fill="#111827" opacity="1" font-family="PingFang SC" font-size="17" font-weight="700"><tspan x="2440" dy="0">设备操作</tspan></text><rect x="2440" y="502" width="348" height="48" rx="14" ry="14" fill="#111827" stroke="none" stroke-width="0" opacity="1"/><text x="2578" y="530" fill="#FFFFFF" opacity="1" font-family="PingFang SC" font-size="14" font-weight="700"><tspan x="2578" dy="0">远程操作</tspan></text><rect x="2440" y="562" width="348" height="48" rx="14" ry="14" fill="#F8FAFC" stroke="#E5E7EB" stroke-width="1" opacity="1"/><text x="2578" y="590" fill="#111827" opacity="1" font-family="PingFang SC" font-size="14" font-weight="700"><tspan x="2578" dy="0">编辑状态</tspan></text><rect x="2440" y="622" width="348" height="48" rx="14" ry="14" fill="#F8FAFC" stroke="#E5E7EB" stroke-width="1" opacity="1"/><text x="2578" y="650" fill="#111827" opacity="1" font-family="PingFang SC" font-size="14" font-weight="700"><tspan x="2578" dy="0">状态记录</tspan></text><rect x="2440" y="682" width="348" height="48" rx="14" ry="14" fill="#F8FAFC" stroke="#E5E7EB" stroke-width="1" opacity="1"/><text x="2578" y="710" fill="#111827" opacity="1" font-family="PingFang SC" font-size="14" font-weight="700"><tspan x="2578" dy="0">物料页面</tspan></text><rect x="2416" y="780" width="396" height="168" rx="20" ry="20" fill="#FFFFFF" stroke="#E5E7EB" stroke-width="1" opacity="1"/><text x="2440" y="817" fill="#111827" opacity="1" font-family="PingFang SC" font-size="17" font-weight="700"><tspan x="2440" dy="0">今日任务</tspan></text><text x="2440" y="853" fill="#111827" opacity="1" font-family="PingFang SC" font-size="13" font-weight="500"><tspan x="2440" dy="0">1. 10:30 前确认远程恢复结果</tspan><tspan x="2440" dy="24">2. 11:00 前安排补奶工单</tspan><tspan x="2440" dy="24">3. 午高峰后复盘离线原因</tspan></text></svg>